<svg width="40" height="40" viewBox="0 0 40 40" fill="none" xmlns="http://www.w3.org/2000/svg">
<path d="M20 6.66699C11.8683 6.66699 5 13.5353 5 21.667C5 29.7987 11.8683 36.667 20 36.667C28.1317 36.667 35 29.7987 35 21.667C35 13.5353 28.1317 6.66699 20 6.66699ZM20 33.3337C13.6767 33.3337 8.33333 27.9903 8.33333 21.667C8.33333 15.3437 13.6767 10.0003 20 10.0003C26.3233 10.0003 31.6667 15.3437 31.6667 21.667C31.6667 27.9903 26.3233 33.3337 20 33.3337Z" fill="black"/>
<path d="M21.6703 20V13.3334H18.337V23.3334H28.337V20H21.6703ZM28.8103 6.17836L31.1636 3.81836L36.1803 8.81836L33.8253 11.18L28.8103 6.17836ZM11.167 6.17836L6.18365 11.1767L3.82031 8.82336L8.80365 3.82336L11.167 6.17836Z" fill="black"/>
</svg>
