<svg width="40" height="40" viewBox="0 0 40 40" fill="none" xmlns="http://www.w3.org/2000/svg">
<path d="M33.3359 15.9283V5H30.0026V8.33333H10.0026V5H6.66927V15.9283C4.68594 17.0833 3.33594 19.2083 3.33594 21.6667V28.3333C3.33594 28.7754 3.51153 29.1993 3.82409 29.5118C4.13665 29.8244 4.56058 30 5.0026 30H6.66927V36.6667H10.0026V30H30.0026V36.6667H33.3359V30H35.0026C35.4446 30 35.8686 29.8244 36.1811 29.5118C36.4937 29.1993 36.6693 28.7754 36.6693 28.3333V21.6667C36.6693 19.2083 35.3176 17.0833 33.3359 15.9283ZM30.0026 11.6667V15H21.6693V11.6667H30.0026ZM10.0026 11.6667H18.3359V15H10.0026V11.6667ZM33.3359 26.6667H6.66927V21.6667C6.66927 19.8283 8.16427 18.3333 10.0026 18.3333H30.0026C31.8409 18.3333 33.3359 19.8283 33.3359 21.6667V26.6667Z" fill="black"/>
</svg>
