<svg width="40" height="40" viewBox="0 0 40 40" fill="none" xmlns="http://www.w3.org/2000/svg">
<path d="M29.9974 3.33301H9.9974C8.15906 3.33301 6.66406 4.82801 6.66406 6.66634V34.9997C6.66406 35.4417 6.83966 35.8656 7.15222 36.1782C7.46478 36.4907 7.8887 36.6663 8.33073 36.6663H31.6641C32.1061 36.6663 32.53 36.4907 32.8426 36.1782C33.1551 35.8656 33.3307 35.4417 33.3307 34.9997V6.66634C33.3307 4.82801 31.8357 3.33301 29.9974 3.33301ZM29.9974 33.333H9.9974V6.66634H29.9974V33.333Z" fill="black"/>
<path d="M13.3359 10H18.3359V13.3333H13.3359V10ZM21.6693 10H26.6693V13.3333H21.6693V10ZM13.3359 16.6667H18.3359V20H13.3359V16.6667ZM21.6693 16.7183H26.6693V20H21.6693V16.7183ZM13.3359 23.3333H18.3359V26.6667H13.3359V23.3333ZM21.6693 23.3333H26.6693V26.6667H21.6693V23.3333Z" fill="black"/>
</svg>
