<svg width="40" height="40" viewBox="0 0 40 40" fill="none" xmlns="http://www.w3.org/2000/svg">
<path d="M35.0026 16.6667H11.6693V11.6667C11.6693 9.82833 13.1643 8.33333 15.0026 8.33333C16.8409 8.33333 18.3359 9.82833 18.3359 11.6667H21.6693C21.6693 7.99 18.6793 5 15.0026 5C11.3259 5 8.33594 7.99 8.33594 11.6667V16.6667H5.0026C4.56058 16.6667 4.13665 16.8423 3.82409 17.1548C3.51153 17.4674 3.33594 17.8913 3.33594 18.3333V21.6667C3.33594 26.01 6.12594 29.705 10.0026 31.0833V36.6667H13.3359V31.6667H26.6693V36.6667H30.0026V31.0833C33.8793 29.705 36.6693 26.01 36.6693 21.6667V18.3333C36.6693 17.8913 36.4937 17.4674 36.1811 17.1548C35.8686 16.8423 35.4446 16.6667 35.0026 16.6667ZM33.3359 21.6667C33.3359 25.3433 30.3459 28.3333 26.6693 28.3333H13.3359C9.65927 28.3333 6.66927 25.3433 6.66927 21.6667V20H33.3359V21.6667Z" fill="black"/>
</svg>
