<svg width="40" height="40" viewBox="0 0 40 40" fill="none" xmlns="http://www.w3.org/2000/svg">
<path d="M22.8479 3.82168C22.6932 3.66677 22.5096 3.54387 22.3074 3.46002C22.1052 3.37617 21.8884 3.33301 21.6696 3.33301C21.4507 3.33301 21.2339 3.37617 21.0317 3.46002C20.8295 3.54387 20.6459 3.66677 20.4912 3.82168L10.7579 13.555C10.7329 13.5533 10.7096 13.54 10.6846 13.54C10.4657 13.5398 10.2489 13.5828 10.0467 13.6666C9.84445 13.7504 9.66079 13.8733 9.50622 14.0283L7.14956 16.385C6.68422 16.8487 6.31533 17.4 6.06417 18.007C5.81301 18.614 5.68456 19.2648 5.68622 19.9217C5.68622 21.2583 6.20789 22.515 7.15122 23.4567L8.32956 24.635L4.79289 28.1717C4.32646 28.6297 3.95708 29.177 3.70681 29.7809C3.45654 30.3848 3.3305 31.033 3.33622 31.6867C3.32835 32.419 3.4832 33.144 3.78958 33.8092C4.09596 34.4744 4.54624 35.0633 5.10789 35.5333C5.97289 36.265 7.08789 36.6667 8.24956 36.6667C9.63956 36.6667 11.0062 36.0983 11.9996 35.105L15.3996 31.7067L16.5779 32.8833C18.4679 34.7717 21.7596 34.7733 23.6479 32.885L26.0062 30.5283C26.1612 30.3738 26.2842 30.1901 26.368 29.9879C26.4518 29.7857 26.4948 29.5689 26.4946 29.35C26.4946 29.3067 26.4729 29.2667 26.4696 29.2233L36.1812 19.5117C36.3361 19.357 36.459 19.1734 36.5429 18.9712C36.6267 18.769 36.6699 18.5522 36.6699 18.3333C36.6699 18.1145 36.6267 17.8977 36.5429 17.6955C36.459 17.4933 36.3361 17.3097 36.1812 17.155L22.8479 3.82168ZM21.2896 30.5283C20.9721 30.8315 20.5499 31.0005 20.1109 31.0002C19.6719 30.9999 19.25 30.8303 18.9329 30.5267L16.5762 28.1717C16.4216 28.0168 16.2379 27.8939 16.0357 27.81C15.8335 27.7262 15.6168 27.683 15.3979 27.683C15.179 27.683 14.9623 27.7262 14.7601 27.81C14.5579 27.8939 14.3742 28.0168 14.2196 28.1717L9.64289 32.7467C9.27412 33.1185 8.77324 33.3294 8.24956 33.3333C7.88883 33.3392 7.53782 33.2163 7.25956 32.9867C7.06857 32.8286 6.91616 32.629 6.81392 32.4032C6.71168 32.1773 6.66231 31.9311 6.66956 31.6833C6.66781 31.4688 6.70927 31.2562 6.79145 31.058C6.87362 30.8599 6.99485 30.6803 7.14789 30.53L11.8629 25.815C12.0178 25.6604 12.1407 25.4767 12.2245 25.2745C12.3084 25.0723 12.3516 24.8556 12.3516 24.6367C12.3516 24.4178 12.3084 24.201 12.2245 23.9989C12.1407 23.7967 12.0178 23.613 11.8629 23.4583L9.50456 21.1C9.34954 20.9459 9.22669 20.7625 9.14314 20.5605C9.0596 20.3585 9.01702 20.1419 9.01789 19.9233C9.01789 19.4767 9.19122 19.0583 9.50622 18.7433L10.6846 17.565L22.4696 29.3517L21.2896 30.5283ZM24.4379 26.5417L13.4612 15.565L21.6696 7.35668L32.6462 18.3333L24.4379 26.5417Z" fill="black"/>
</svg>
