<svg width="40" height="40" viewBox="0 0 40 40" fill="none" xmlns="http://www.w3.org/2000/svg">
<path d="M5 9.99967V33.333C5 34.2171 5.35119 35.0649 5.97631 35.69C6.60143 36.3152 7.44928 36.6663 8.33333 36.6663H31.6667C32.5507 36.6663 33.3986 36.3152 34.0237 35.69C34.6488 35.0649 35 34.2171 35 33.333V9.99967C35 9.11562 34.6488 8.26777 34.0237 7.64265C33.3986 7.01753 32.5507 6.66634 31.6667 6.66634H28.3333V3.33301H25V6.66634H15V3.33301H11.6667V6.66634H8.33333C7.44928 6.66634 6.60143 7.01753 5.97631 7.64265C5.35119 8.26777 5 9.11562 5 9.99967ZM31.6667 33.333H8.33333V13.333H31.6667V33.333Z" fill="black"/>
</svg>
