<svg width="40" height="40" viewBox="0 0 40 40" fill="none" xmlns="http://www.w3.org/2000/svg">
<path d="M34.8626 15.9403C34.9507 15.7402 34.9984 15.5247 35.003 15.3061C35.0077 15.0875 34.9693 14.8701 34.8898 14.6664C34.8104 14.4627 34.6916 14.2766 34.5403 14.1188C34.3889 13.9611 34.2079 13.8347 34.0076 13.747L12.2159 4.15365C10.5576 3.42365 8.51594 4.23865 7.8076 5.89031L4.12427 14.4803C3.77775 15.2929 3.76775 16.2097 4.09646 17.0296C4.42518 17.8495 5.06575 18.5055 5.8776 18.8536L15.9409 23.167L13.8743 28.3336H6.66927V23.3336H3.33594V36.667H6.66927V31.667H13.8743C15.2459 31.667 16.4609 30.8436 16.9676 29.5703L19.0043 24.4803L27.6793 28.197C28.0833 28.3703 28.5394 28.3771 28.9483 28.2157C29.3573 28.0543 29.6859 27.7379 29.8626 27.3353L30.3826 26.152L33.2176 27.2853L36.5509 18.952L33.9909 17.9303L34.8626 15.9403ZM27.4726 24.4836L7.19094 15.792L10.8709 7.20531L31.1409 16.1286L27.4726 24.4836Z" fill="black"/>
</svg>
