<svg width="40" height="40" viewBox="0 0 40 40" fill="none" xmlns="http://www.w3.org/2000/svg">
<path d="M34.6226 16.927L32.3426 10.0853C32.0119 9.08946 31.3757 8.22316 30.5245 7.60951C29.6733 6.99585 28.6503 6.66606 27.6009 6.66699H12.4043C11.3549 6.66606 10.332 6.99585 9.48075 7.60951C8.62953 8.22316 7.99335 9.08946 7.6626 10.0853L5.3826 16.927C4.77696 17.1811 4.25973 17.6083 3.89568 18.1549C3.53162 18.7016 3.33692 19.3435 3.33594 20.0003V28.3337C3.33594 29.5887 4.04094 30.6703 5.0676 31.2387C5.04594 31.3487 5.0026 31.4487 5.0026 31.5637V35.0003C5.0026 35.4424 5.1782 35.8663 5.49076 36.1788C5.80332 36.4914 6.22724 36.667 6.66927 36.667H8.33594C8.77797 36.667 9.20189 36.4914 9.51445 36.1788C9.82701 35.8663 10.0026 35.4424 10.0026 35.0003V31.667H30.0026V35.0003C30.0026 35.4424 30.1782 35.8663 30.4908 36.1788C30.8033 36.4914 31.2272 36.667 31.6693 36.667H33.3359C33.778 36.667 34.2019 36.4914 34.5145 36.1788C34.827 35.8663 35.0026 35.4424 35.0026 35.0003V31.5637C35.0026 31.4487 34.9593 31.347 34.9376 31.2387C35.4599 30.9539 35.8962 30.5341 36.2008 30.023C36.5054 29.512 36.6672 28.9286 36.6693 28.3337V20.0003C36.6693 18.6187 35.8226 17.432 34.6226 16.927ZM6.66927 28.3337V20.0003H33.3359L33.3393 28.3337H6.66927ZM12.4043 10.0003H27.5993C28.3176 10.0003 28.9543 10.457 29.1809 11.1403L31.0243 16.667H8.98094L10.8226 11.1403C10.9332 10.8083 11.1455 10.5195 11.4294 10.3149C11.7132 10.1103 12.0543 10.0002 12.4043 10.0003Z" fill="black"/>
<path d="M10.8359 26.667C12.2167 26.667 13.3359 25.5477 13.3359 24.167C13.3359 22.7863 12.2167 21.667 10.8359 21.667C9.45523 21.667 8.33594 22.7863 8.33594 24.167C8.33594 25.5477 9.45523 26.667 10.8359 26.667Z" fill="black"/>
<path d="M29.1641 26.667C30.5448 26.667 31.6641 25.5477 31.6641 24.167C31.6641 22.7863 30.5448 21.667 29.1641 21.667C27.7834 21.667 26.6641 22.7863 26.6641 24.167C26.6641 25.5477 27.7834 26.667 29.1641 26.667Z" fill="black"/>
</svg>
