<svg width="40" height="40" viewBox="0 0 40 40" fill="none" xmlns="http://www.w3.org/2000/svg">
<path d="M10.0026 8.33301V31.6663H15.0026V21.6663H25.0026V31.6663H30.0026V8.33301H25.0026V18.333H15.0026V8.33301H10.0026ZM5.0026 24.9997C5.0026 25.4417 5.1782 25.8656 5.49076 26.1782C5.80332 26.4907 6.22724 26.6663 6.66927 26.6663H8.33594V13.333H6.66927C6.22724 13.333 5.80332 13.5086 5.49076 13.8212C5.1782 14.1337 5.0026 14.5576 5.0026 14.9997V18.333H3.33594V21.6663H5.0026V24.9997ZM35.0026 14.9997C35.0026 14.5576 34.827 14.1337 34.5145 13.8212C34.2019 13.5086 33.778 13.333 33.3359 13.333H31.6693V26.6663H33.3359C33.778 26.6663 34.2019 26.4907 34.5145 26.1782C34.827 25.8656 35.0026 25.4417 35.0026 24.9997V21.6663H36.6693V18.333H35.0026V14.9997Z" fill="black"/>
</svg>
