<svg width="40" height="40" viewBox="0 0 40 40" fill="none" xmlns="http://www.w3.org/2000/svg">
<path d="M19.9974 36.6664C27.7241 36.6664 33.3307 30.8864 33.3307 22.9231C33.3307 12.5364 21.4674 3.99976 20.9624 3.64142C20.6809 3.44171 20.3444 3.33428 19.9993 3.33398C19.6542 3.33369 19.3175 3.44053 19.0357 3.63976C18.5307 3.99476 6.66406 12.5048 6.66406 22.9164C6.66406 30.8831 12.2707 36.6664 19.9974 36.6664ZM19.9957 7.09976C22.6707 9.24976 29.9974 15.7898 29.9974 22.9231C29.9974 29.0531 25.8841 33.3331 19.9974 33.3331C14.1107 33.3331 9.9974 29.0498 9.9974 22.9164C9.9974 15.7664 17.3207 9.24476 19.9957 7.09976Z" fill="black"/>
</svg>
