<svg width="40" height="40" viewBox="0 0 40 40" fill="none" xmlns="http://www.w3.org/2000/svg">
<path d="M20.0026 3.33301C16.7063 3.33301 13.4839 4.31049 10.7431 6.14185C8.00229 7.9732 5.86608 10.5762 4.60462 13.6216C3.34316 16.6671 3.0131 20.0182 3.65619 23.2512C4.29928 26.4842 5.88662 29.4539 8.2175 31.7848C10.5484 34.1157 13.5181 35.703 16.7511 36.3461C19.9841 36.9892 23.3352 36.6591 26.3807 35.3977C29.4261 34.1362 32.0291 32 33.8604 29.2592C35.6918 26.5184 36.6693 23.296 36.6693 19.9997C36.6693 17.811 36.2382 15.6437 35.4006 13.6216C34.563 11.5995 33.3354 9.7622 31.7877 8.21456C30.2401 6.66692 28.4028 5.43926 26.3807 4.60168C24.3586 3.7641 22.1913 3.33301 20.0026 3.33301ZM20.0026 33.333C17.3655 33.333 14.7877 32.551 12.595 31.0859C10.4024 29.6209 8.69339 27.5385 7.68422 25.1021C6.67505 22.6658 6.41101 19.9849 6.92547 17.3985C7.43994 14.8121 8.70982 12.4363 10.5745 10.5716C12.4392 8.70688 14.815 7.43701 17.4014 6.92254C19.9878 6.40807 22.6687 6.67211 25.1051 7.68128C27.5414 8.69045 29.6238 10.3994 31.0889 12.5921C32.554 14.7847 33.3359 17.3626 33.3359 19.9997C33.3359 23.5359 31.9312 26.9273 29.4307 29.4278C26.9302 31.9283 23.5388 33.333 20.0026 33.333Z" fill="black"/>
<path d="M20.0026 18.3333C16.6693 18.3333 16.6693 17.2833 16.6693 16.6667C16.6693 16.05 17.8359 15 20.0026 15C22.1693 15 22.3193 16.0667 22.3359 16.6667H25.6693C25.6467 15.5313 25.2384 14.4373 24.5114 13.5649C23.7843 12.6925 22.782 12.0936 21.6693 11.8667V10H18.3359V11.8167C15.0026 12.3667 13.3359 14.5167 13.3359 16.6667C13.3359 18.5333 14.2026 21.6667 20.0026 21.6667C23.3359 21.6667 23.3359 22.8 23.3359 23.3333C23.3359 23.8667 22.3026 25 20.0026 25C16.9359 25 16.6693 23.5667 16.6693 23.3333H13.3359C13.3359 24.8667 14.4359 27.5833 18.3359 28.2V30H21.6693V28.2C25.0026 27.6333 26.6693 25.4833 26.6693 23.3333C26.6693 21.4667 25.8026 18.3333 20.0026 18.3333Z" fill="black"/>
</svg>
