<svg width="40" height="40" viewBox="0 0 40 40" fill="none" xmlns="http://www.w3.org/2000/svg">
<path d="M11.6531 19.9997C11.6531 24.6013 15.3965 28.3447 19.9981 28.3447C24.5998 28.3447 28.3431 24.6013 28.3431 19.9997C28.3431 15.398 24.5998 11.6547 19.9981 11.6547C15.3965 11.6547 11.6531 15.398 11.6531 19.9997ZM19.9981 14.988C22.7615 14.988 25.0098 17.2363 25.0098 19.9997C25.0098 22.763 22.7615 25.0113 19.9981 25.0113C17.2348 25.0113 14.9865 22.763 14.9865 19.9997C14.9865 17.2363 17.2348 14.988 19.9981 14.988ZM18.3281 31.6663H21.6615V36.6663H18.3281V31.6663ZM18.3281 3.33301H21.6615V8.33301H18.3281V3.33301ZM3.32812 18.333H8.32813V21.6663H3.32812V18.333ZM31.6615 18.333H36.6615V21.6663H31.6615V18.333ZM7.02979 30.6047L10.5631 27.068L12.9215 29.4247L9.38812 32.9613L7.02979 30.6047ZM27.0648 10.573L30.6015 7.03634L32.9581 9.39301L29.4215 12.9297L27.0648 10.573ZM10.5681 12.9313L7.03146 9.39467L9.38979 7.03801L12.9231 10.5747L10.5681 12.9313ZM32.9581 30.6063L30.6015 32.963L27.0648 29.4263L29.4215 27.0697L32.9581 30.6063Z" fill="black"/>
</svg>
