<svg width="40" height="40" viewBox="0 0 40 40" fill="none" xmlns="http://www.w3.org/2000/svg">
<path d="M31.6726 13.3403C33.5154 13.3403 35.0093 11.8464 35.0093 10.0037C35.0093 8.16087 33.5154 6.66699 31.6726 6.66699C29.8298 6.66699 28.3359 8.16087 28.3359 10.0037C28.3359 11.8464 29.8298 13.3403 31.6726 13.3403Z" fill="black"/>
<path d="M31.4609 22.0315C30.5159 22.7865 29.8309 23.3331 28.3309 23.3331C26.8326 23.3331 26.1843 22.8148 25.2043 22.0315C24.0709 21.1265 22.6626 19.9998 19.9926 19.9998C17.3243 19.9998 15.9176 21.1265 14.7859 22.0315C13.8059 22.8148 13.1609 23.3331 11.6609 23.3331C10.1643 23.3331 9.5176 22.8148 8.53927 22.0331C7.4076 21.1265 6.0026 19.9998 3.33594 19.9998V23.3331C4.83094 23.3331 5.4776 23.8515 6.45594 24.6331C7.5876 25.5398 8.99427 26.6665 11.6609 26.6665C14.3276 26.6665 15.7376 25.5398 16.8693 24.6331C17.8476 23.8498 18.4959 23.3331 19.9926 23.3331C21.4926 23.3331 22.1776 23.8798 23.1226 24.6348C24.2543 25.5398 25.6626 26.6665 28.3309 26.6665C31.0009 26.6665 32.4093 25.5398 33.5426 24.6348C34.5226 23.8515 35.1709 23.3331 36.6693 23.3331V19.9998C34.0009 19.9998 32.5926 21.1265 31.4609 22.0315ZM28.3309 31.6665C26.8326 31.6665 26.1843 31.1481 25.2043 30.3648C24.0709 29.4598 22.6626 28.3331 19.9926 28.3331C17.3243 28.3331 15.9176 29.4598 14.7859 30.3648C13.8059 31.1481 13.1609 31.6665 11.6609 31.6665C10.1643 31.6665 9.5176 31.1481 8.53927 30.3665C7.4076 29.4598 6.0026 28.3331 3.33594 28.3331V31.6665C4.83094 31.6665 5.4776 32.1848 6.45594 32.9665C7.5876 33.8731 8.99427 34.9998 11.6609 34.9998C14.3276 34.9998 15.7376 33.8731 16.8693 32.9665C17.8476 32.1831 18.4959 31.6665 19.9926 31.6665C21.4926 31.6665 22.1776 32.2131 23.1226 32.9681C24.2543 33.8731 25.6626 34.9998 28.3309 34.9998C31.0009 34.9998 32.4093 33.8731 33.5426 32.9681C34.5226 32.1848 35.1709 31.6665 36.6693 31.6665V28.3331C34.0009 28.3331 32.5926 29.4598 31.4609 30.3648C30.5159 31.1198 29.8309 31.6665 28.3309 31.6665ZM18.3359 9.03148L21.8426 12.5381L18.4143 16.8215C18.8909 16.7281 19.4076 16.6665 19.9926 16.6665C22.6626 16.6665 24.0709 17.7931 25.2043 18.6981C26.1843 19.4815 26.8326 19.9998 28.3309 19.9998C29.8309 19.9998 30.5159 19.4531 31.4609 18.6981C31.6809 18.5231 31.9176 18.3365 32.1659 18.1548L28.6726 14.6715L28.6809 14.6631L19.5143 5.49648C19.3596 5.34157 19.176 5.21868 18.9738 5.13482C18.7716 5.05097 18.5548 5.00781 18.3359 5.00781C18.117 5.00781 17.9003 5.05097 17.6981 5.13482C17.4959 5.21868 17.3123 5.34157 17.1576 5.49648L10.4909 12.1631L12.8476 14.5198L18.3359 9.03148Z" fill="black"/>
</svg>
